<svg xmlns="http://www.w3.org/2000/svg" viewBox="0 0 900 610">
<defs>
  <linearGradient id="bg" x1="0%" y1="0%" x2="0%" y2="100%">
    <stop offset="0%" style="stop-color:#1e293b"/>
    <stop offset="100%" style="stop-color:#0f172a"/>
  </linearGradient>
  <filter id="shadow" x="-20%" y="-20%" width="140%" height="140%">
    <feDropShadow dx="1" dy="1" stdDeviation="2" flood-opacity="0.3"/>
  </filter>
</defs>
<rect width="900" height="610" fill="url(#bg)" rx="12"/>
<text x="450" y="30" text-anchor="middle" fill="#e2e8f0" font-family="system-ui, sans-serif" font-size="16" font-weight="bold">
  Cyrene Clang 22.1.0 Benchmark
</text>

<text x="14" y="130" text-anchor="middle" fill="#94a3b8" font-family="system-ui, sans-serif" font-size="11" transform="rotate(-90,14,130)">Compile Time</text>
<line x1="70" y1="190.0" x2="830" y2="190.0" stroke="#334155" stroke-width="0.5"/>
<text x="65" y="194.0" text-anchor="end" fill="#64748b" font-family="system-ui, sans-serif" font-size="9">0.0ms</text>
<line x1="70" y1="146.66666666666666" x2="830" y2="146.66666666666666" stroke="#334155" stroke-width="0.5"/>
<text x="65" y="150.66666666666666" text-anchor="end" fill="#64748b" font-family="system-ui, sans-serif" font-size="9">704.5666666666666ms</text>
<line x1="70" y1="103.33333333333333" x2="830" y2="103.33333333333333" stroke="#334155" stroke-width="0.5"/>
<text x="65" y="107.33333333333333" text-anchor="end" fill="#64748b" font-family="system-ui, sans-serif" font-size="9">1409.1333333333332ms</text>
<line x1="70" y1="60.0" x2="830" y2="60.0" stroke="#334155" stroke-width="0.5"/>
<text x="65" y="64.0" text-anchor="end" fill="#64748b" font-family="system-ui, sans-serif" font-size="9">2113.7ms</text>
<g filter="url(#shadow)">
  <rect x="375.0" y="76.95652173913042" width="60" height="113.04347826086958" fill="#64748b" rx="4"/>
  <text x="405.0" y="72.95652173913042" text-anchor="middle" fill="#e2e8f0" font-family="system-ui, sans-serif" font-size="10" font-weight="bold">1838ms</text>
</g>
<g filter="url(#shadow)">
  <rect x="465.0" y="109.67639683966503" width="60" height="80.32360316033497" fill="#64748b" rx="4"/>
  <text x="495.0" y="105.67639683966503" text-anchor="middle" fill="#e2e8f0" font-family="system-ui, sans-serif" font-size="10" font-weight="bold">1306ms</text>
</g>
<rect x="70" y="60" width="760" height="130" fill="none" stroke="#334155" stroke-width="1" rx="4"/>
<text x="14" y="310" text-anchor="middle" fill="#94a3b8" font-family="system-ui, sans-serif" font-size="11" transform="rotate(-90,14,310)">Binary Size</text>
<line x1="70" y1="370.0" x2="830" y2="370.0" stroke="#334155" stroke-width="0.5"/>
<text x="65" y="374.0" text-anchor="end" fill="#64748b" font-family="system-ui, sans-serif" font-size="9">0.0B</text>
<line x1="70" y1="326.6666666666667" x2="830" y2="326.6666666666667" stroke="#334155" stroke-width="0.5"/>
<text x="65" y="330.6666666666667" text-anchor="end" fill="#64748b" font-family="system-ui, sans-serif" font-size="9">0.0B</text>
<line x1="70" y1="283.3333333333333" x2="830" y2="283.3333333333333" stroke="#334155" stroke-width="0.5"/>
<text x="65" y="287.3333333333333" text-anchor="end" fill="#64748b" font-family="system-ui, sans-serif" font-size="9">0.0B</text>
<line x1="70" y1="240.0" x2="830" y2="240.0" stroke="#334155" stroke-width="0.5"/>
<text x="65" y="244.0" text-anchor="end" fill="#64748b" font-family="system-ui, sans-serif" font-size="9">0.0B</text>
<g filter="url(#shadow)">
  <rect x="375.0" y="370" width="60" height="0" fill="#64748b" rx="4"/>
  <text x="405.0" y="366" text-anchor="middle" fill="#e2e8f0" font-family="system-ui, sans-serif" font-size="10" font-weight="bold">0B</text>
</g>
<g filter="url(#shadow)">
  <rect x="465.0" y="370" width="60" height="0" fill="#64748b" rx="4"/>
  <text x="495.0" y="366" text-anchor="middle" fill="#e2e8f0" font-family="system-ui, sans-serif" font-size="10" font-weight="bold">0B</text>
</g>
<rect x="70" y="240" width="760" height="130" fill="none" stroke="#334155" stroke-width="1" rx="4"/>
<text x="14" y="490" text-anchor="middle" fill="#94a3b8" font-family="system-ui, sans-serif" font-size="11" transform="rotate(-90,14,490)">Peak Memory</text>
<line x1="70" y1="550.0" x2="830" y2="550.0" stroke="#334155" stroke-width="0.5"/>
<text x="65" y="554.0" text-anchor="end" fill="#64748b" font-family="system-ui, sans-serif" font-size="9">0.0KB</text>
<line x1="70" y1="506.6666666666667" x2="830" y2="506.6666666666667" stroke="#334155" stroke-width="0.5"/>
<text x="65" y="510.6666666666667" text-anchor="end" fill="#64748b" font-family="system-ui, sans-serif" font-size="9">20.0GB</text>
<line x1="70" y1="463.3333333333333" x2="830" y2="463.3333333333333" stroke="#334155" stroke-width="0.5"/>
<text x="65" y="467.3333333333333" text-anchor="end" fill="#64748b" font-family="system-ui, sans-serif" font-size="9">40.0GB</text>
<line x1="70" y1="420.0" x2="830" y2="420.0" stroke="#334155" stroke-width="0.5"/>
<text x="65" y="424.0" text-anchor="end" fill="#64748b" font-family="system-ui, sans-serif" font-size="9">59.9GB</text>
<g filter="url(#shadow)">
  <rect x="375.0" y="437.10058014471025" width="60" height="112.89941985528976" fill="#64748b" rx="4"/>
  <text x="405.0" y="433.10058014471025" text-anchor="middle" fill="#e2e8f0" font-family="system-ui, sans-serif" font-size="10" font-weight="bold">52.0GB</text>
</g>
<text x="405.0" y="558" text-anchor="middle" fill="#cbd5e1" font-family="system-ui, sans-serif" font-size="10">no-lto</text>
<g filter="url(#shadow)">
  <rect x="465.0" y="436.95652173913044" width="60" height="113.04347826086958" fill="#64748b" rx="4"/>
  <text x="495.0" y="432.95652173913044" text-anchor="middle" fill="#e2e8f0" font-family="system-ui, sans-serif" font-size="10" font-weight="bold">52.1GB</text>
</g>
<text x="495.0" y="558" text-anchor="middle" fill="#cbd5e1" font-family="system-ui, sans-serif" font-size="10">thin-lto</text>
<rect x="70" y="420" width="760" height="130" fill="none" stroke="#334155" stroke-width="1" rx="4"/>
</svg>